<svg className='menu-svg-bg dark:menu-svg-bg-dark' viewBox="0 0 64 64">
    <circle cx="32" cy="32" r="32"/>
    <path d="M13.6569 3.34314C12.1566 1.84285 10.1217 1 8 1C5.87827 1 3.84344 1.84286 2.34315 3.34315C0.842855 4.84344 -6.74424e-08 6.87827 0 9C6.74425e-08 11.1217 0.842855 13.1566 2.34315 14.6569L8 9L13.6569 3.34314Z"/>
    <path d="M61.6569 14.6569C62.3997 13.914 62.989 13.0321 63.391 12.0615C63.7931 11.0909 64 10.0506 64 9C64 7.94943 63.7931 6.90914 63.391 5.93853C62.989 4.96793 62.3997 4.08601 61.6569 3.34315C60.914 2.60028 60.0321 2.011 59.0615 1.60896C58.0909 1.20693 57.0506 1 56 1C54.9494 1 53.9091 1.20693 52.9385 1.60896C51.9679 2.011 51.086 2.60028 50.3431 3.34315L56 9L61.6569 14.6569Z"/>
    <rect x="6.56845" y="9.56845" width="2.82843" height="2.02452" transform="rotate(-45 6.56845 9.56845)"/>
    <rect x="55.9756" y="6.97563" width="2.86289" height="3.54717" transform="rotate(45 55.9756 6.97563)"/>
    <rect x="13.369" y="54.5103" width="5.41633" height="7.80089" transform="rotate(37 13.369 54.5103)"/>
    <rect x="46.6743" y="58.2596" width="5.41634" height="7.18772" transform="rotate(-37 46.6743 58.2596)"/>
    <rect className='menu-svg-col1 dark:menu-svg-col1-dark' x="22.3789" y="21" width="16.3456" height="5.21388" transform="rotate(45 22.3789 21)"/>
    <rect className='menu-svg-col1 dark:menu-svg-col1-dark' x="28.5" y="34.5" width="30.4056" height="4.94975" transform="rotate(-45 28.5 34.5)"/>
</svg>