<svg className='menu-svg-bg dark:menu-svg-bg-dark' viewBox="0 0 64 64">
    <circle cx="32" cy="32" r="32"/>
    <rect className='menu-svg-col1 dark:menu-svg-col1-dark' x="11" y="9" width="42" height="46" rx="4"/>
    <path d="M25.8906 28.9688L23.0781 31.4531L20.9688 28.9688L22.5156 17.8594L25.3281 15.4219L27.4375 17.8594L25.8906 28.9688ZM23.5469 45.7031L20.7344 48.1875L18.625 45.7031L20.1719 34.6406L22.9844 32.1562L25.0938 34.6406L23.5469 45.7031ZM37.4688 48.5625L34.6562 51H23.1719L21.0156 48.5625L23.8281 46.0781H35.3594L37.4688 48.5625ZM40.7031 45.7031L37.8438 48.1875L35.7344 45.7031L37.2812 34.6406L40.1406 32.1562L42.25 34.6406L40.7031 45.7031ZM43.0469 28.9688L40.2344 31.4531L38.125 28.9688L39.625 17.8594L42.4844 15.4219L44.5938 17.8594L43.0469 28.9688ZM42.2031 15.0469L39.3438 17.5312H27.8594L25.7031 15.0469L28.5625 12.6094H40.0938L42.2031 15.0469ZM39.8125 31.7812L37 34.3125H25.4219L23.3125 31.7812L26.1719 29.3438H37.7031L39.8125 31.7812ZM47.9688 48.4688L45.2031 50.9531L43.0469 48.4688L43.4219 46.0312L46.1875 43.5L48.3438 46.0312L47.9688 48.4688Z"/>
</svg>