<svg className='menu-svg-bg dark:menu-svg-bg-dark' viewBox="0 0 64 64">
    <circle cx="32" cy="32" r="32"/>
    <circle className='menu-svg-col1 dark:menu-svg-col1-dark' cx="32" cy="32" r="18"/>
    <rect className='menu-svg-col1 dark:menu-svg-col1-dark' x="7" y="21" width="50" height="22" rx="5"/>
    <path d="M17.81 27.858C17.954 28.35 18.11 28.908 18.278 29.532C18.458 30.144 18.644 30.78 18.836 31.44C19.04 32.1 19.244 32.76 19.448 33.42C19.652 34.08 19.85 34.692 20.042 35.256C20.198 34.644 20.354 33.978 20.51 33.258C20.678 32.538 20.834 31.794 20.978 31.026C21.122 30.258 21.26 29.496 21.392 28.74C21.536 27.972 21.668 27.234 21.788 26.526H24.704C24.284 28.614 23.798 30.732 23.246 32.88C22.706 35.028 22.118 37.068 21.482 39H18.908C18.488 37.848 18.08 36.642 17.684 35.382C17.288 34.11 16.898 32.838 16.514 31.566C16.13 32.838 15.746 34.11 15.362 35.382C14.978 36.642 14.576 37.848 14.156 39H11.582C10.946 37.068 10.352 35.028 9.8 32.88C9.26 30.732 8.78 28.614 8.36 26.526H11.402C11.522 27.234 11.654 27.972 11.798 28.74C11.942 29.496 12.092 30.258 12.248 31.026C12.404 31.794 12.56 32.538 12.716 33.258C12.884 33.978 13.052 34.644 13.22 35.256C13.436 34.668 13.646 34.044 13.85 33.384C14.054 32.724 14.252 32.064 14.444 31.404C14.636 30.744 14.81 30.108 14.966 29.496C15.134 28.884 15.284 28.338 15.416 27.858H17.81ZM29.0104 39H26.3284V29.532H29.0104V39ZM29.2624 26.796C29.2624 27.288 29.1004 27.678 28.7764 27.966C28.4644 28.242 28.0924 28.38 27.6604 28.38C27.2284 28.38 26.8504 28.242 26.5264 27.966C26.2144 27.678 26.0584 27.288 26.0584 26.796C26.0584 26.304 26.2144 25.92 26.5264 25.644C26.8504 25.356 27.2284 25.212 27.6604 25.212C28.0924 25.212 28.4644 25.356 28.7764 25.644C29.1004 25.92 29.2624 26.304 29.2624 26.796Z"/>
    <rect x="30" y="23" width="25" height="18" rx="3"/>
    <path className='menu-svg-col1 dark:menu-svg-col1-dark' d="M37.44 39V26.526H45.792V28.884H40.248V31.494H45.18V33.852H40.248V39H37.44ZM50.2779 39H47.5959V29.532H50.2779V39ZM50.5299 26.796C50.5299 27.288 50.3679 27.678 50.0439 27.966C49.7319 28.242 49.3599 28.38 48.9279 28.38C48.4959 28.38 48.1179 28.242 47.7939 27.966C47.4819 27.678 47.3259 27.288 47.3259 26.796C47.3259 26.304 47.4819 25.92 47.7939 25.644C48.1179 25.356 48.4959 25.212 48.9279 25.212C49.3599 25.212 49.7319 25.356 50.0439 25.644C50.3679 25.92 50.5299 26.304 50.5299 26.796Z"/>
    <path className='menu-svg-col1 dark:menu-svg-col1-dark' d="M30 41C30.394 41 30.7841 40.9224 31.1481 40.7716C31.512 40.6209 31.8427 40.3999 32.1213 40.1213C32.3999 39.8427 32.6209 39.512 32.7716 39.1481C32.9224 38.7841 33 38.394 33 38L30 38L30 41Z"/>
    <rect className='menu-svg-col1 dark:menu-svg-col1-dark' x="30" y="23" width="6" height="3"/>
    <path d="M36 29C35.4067 29 34.8266 28.8241 34.3333 28.4944C33.8399 28.1648 33.4554 27.6962 33.2284 27.1481C33.0013 26.5999 32.9419 25.9967 33.0576 25.4147C33.1734 24.8328 33.4591 24.2982 33.8787 23.8787C34.2982 23.4591 34.8328 23.1734 35.4147 23.0576C35.9967 22.9419 36.5999 23.0013 37.1481 23.2284C37.6962 23.4554 38.1648 23.8399 38.4944 24.3333C38.8241 24.8266 39 25.4067 39 26L36 26L36 29Z"/>
    <rect className='menu-svg-col1 dark:menu-svg-col1-dark' x="30" y="26" width="3" height="12"/>
</svg>
