<svg viewBox="0 0 64 64">
  <g transform="translate(.5 -.5)">
    <path d="m55.091 27.727a27.545 27.545 0 1 1 -55.091 0 27.545 27.545 0 1 1 55.091 0z" fill="#00be31" transform="matrix(.99849 0 0 .99849 3.9962 4.8147)"/>
    <path strokeLinejoin="round" d="m55.091 27.727a27.545 27.545 0 1 1 -55.091 0 27.545 27.545 0 1 1 55.091 0z" transform="matrix(.99849 0 0 .99849 3.9962 4.8147)" stroke="#00be31" strokeLinecap="round" strokeWidth="2.5038" fill="#00be31"/>
    <path d="m47.25 15.71c-9.325 2.509-17.627 10.014-19.25 19.781-3.925-2.606-7.217-7.955-11.969-8.218-3.137 1.633-10.434 5.866-4.281 8.343 5.505 4.278 13.752 8.131 15.062 15.563 2.69 2.513 6.167-1.059 8.969-2 3.474-5.623-0.428-13.37 2.938-19.344 1.738-5.634 7.82-7.914 11.281-12-0.003-1.483-1.361-2.51-2.75-2.125z" fill="#fff"/>
  </g>
</svg>