<svg x="0px" y="0px" viewBox="0 0 1000 1000">
    <path d="M989.9,501.9c0,0.4-0.1,0.8-0.1,1.2c0,0.2,0,0.4-0.1,0.6c0,0.3-0.1,0.6-0.1,0.9c0,0.3-0.1,0.7-0.1,1c0,0,0,0.1,0,0.1c-1.2,7.8-4.8,15-10.2,20.6c-10.3,12.5-21.5,24.2-32.8,35.7c-61.1,62-131.1,117.3-207.8,157.4c-49,25.6-101.4,46.3-155.7,56.2c-59.7,10.9-119.5,10.4-179-2.5c-102.8-22.4-196-77.9-277.4-144.3c-37.8-30.8-75-64.6-106.3-102.5c-13.7-16.6-13.7-36.2,0-52.8c10.3-12.5,21.5-24.2,32.8-35.6c61.1-62,131.1-117.3,207.8-157.4c49-25.6,101.4-46.3,155.7-56.3c59.7-10.9,119.5-10.4,179,2.5c102.8,22.4,196,77.9,277.4,144.3c37.8,30.8,75,64.6,106.3,102.5c5.5,5.6,9,12.9,10.2,20.6c0,0,0,0.1,0,0.1c0.1,0.3,0.1,0.7,0.1,1c0,0.3,0.1,0.6,0.1,0.9c0,0.2,0,0.4,0.1,0.6c0,0.4,0.1,0.8,0.1,1.2c0,0.6,0.1,1.2,0.1,1.9C990,500.6,990,501.3,989.9,501.9z M500,308.6c-101.5,0-183.7,82.3-183.7,183.7c0,101.5,82.3,183.7,183.7,183.7c101.5,0,183.7-82.3,183.7-183.7C683.7,390.9,601.5,308.6,500,308.6z M500,584.2c-50.7,0-91.9-41.1-91.9-91.9c0-50.7,41.1-91.9,91.9-91.9s91.9,41.1,91.9,91.9C591.9,543.1,550.7,584.2,500,584.2z"/>
</svg>