<svg viewBox="0 0 64 64">
    <circle className='menu-svg-bg dark:menu-svg-bg-dark' cx="32" cy="32" r="32"/>
    <path className='menu-svg-col1 dark:menu-svg-col1-dark' d="M19.55 21.168C18.7567 21.168 18.08 20.9627 17.52 20.552C16.96 20.132 16.5307 19.544 16.232 18.788C15.9333 18.0227 15.784 17.1313 15.784 16.114C15.784 15.078 15.9333 14.182 16.232 13.426C16.5307 12.67 16.96 12.0867 17.52 11.676C18.08 11.2653 18.7567 11.06 19.55 11.06C20.3527 11.06 21.0293 11.2653 21.58 11.676C22.14 12.0867 22.5693 12.67 22.868 13.426C23.1667 14.1727 23.316 15.0687 23.316 16.114C23.316 17.1407 23.1667 18.032 22.868 18.788C22.5693 19.544 22.14 20.132 21.58 20.552C21.0293 20.9627 20.3527 21.168 19.55 21.168ZM19.55 19.908C20.2873 19.908 20.8427 19.5767 21.216 18.914C21.5893 18.242 21.776 17.3087 21.776 16.114C21.776 14.9007 21.5893 13.9673 21.216 13.314C20.8427 12.6513 20.2873 12.32 19.55 12.32C18.822 12.32 18.2713 12.6513 17.898 13.314C17.5247 13.9673 17.338 14.9007 17.338 16.114C17.338 17.3087 17.5247 18.242 17.898 18.914C18.2713 19.5767 18.822 19.908 19.55 19.908ZM28.6555 21.168C27.8621 21.168 27.1855 20.9627 26.6255 20.552C26.0655 20.132 25.6361 19.544 25.3375 18.788C25.0388 18.0227 24.8895 17.1313 24.8895 16.114C24.8895 15.078 25.0388 14.182 25.3375 13.426C25.6361 12.67 26.0655 12.0867 26.6255 11.676C27.1855 11.2653 27.8621 11.06 28.6555 11.06C29.4581 11.06 30.1348 11.2653 30.6855 11.676C31.2455 12.0867 31.6748 12.67 31.9735 13.426C32.2721 14.1727 32.4215 15.0687 32.4215 16.114C32.4215 17.1407 32.2721 18.032 31.9735 18.788C31.6748 19.544 31.2455 20.132 30.6855 20.552C30.1348 20.9627 29.4581 21.168 28.6555 21.168ZM28.6555 19.908C29.3928 19.908 29.9481 19.5767 30.3215 18.914C30.6948 18.242 30.8815 17.3087 30.8815 16.114C30.8815 14.9007 30.6948 13.9673 30.3215 13.314C29.9481 12.6513 29.3928 12.32 28.6555 12.32C27.9275 12.32 27.3768 12.6513 27.0035 13.314C26.6301 13.9673 26.4435 14.9007 26.4435 16.114C26.4435 17.3087 26.6301 18.242 27.0035 18.914C27.3768 19.5767 27.9275 19.908 28.6555 19.908ZM37.6489 21V14.966L37.7189 12.978L36.1369 14.266L34.3869 15.666V13.916L38.0549 11.228H39.1329V21H37.6489ZM34.3869 21V19.74H41.3029V21H34.3869ZM46.7544 21V14.966L46.8244 12.978L45.2424 14.266L43.4924 15.666V13.916L47.1604 11.228H48.2384V21H46.7544ZM43.4924 21V19.74H50.4084V21H43.4924ZM19.55 37.168C18.7567 37.168 18.08 36.9627 17.52 36.552C16.96 36.132 16.5307 35.544 16.232 34.788C15.9333 34.0227 15.784 33.1313 15.784 32.114C15.784 31.078 15.9333 30.182 16.232 29.426C16.5307 28.67 16.96 28.0867 17.52 27.676C18.08 27.2653 18.7567 27.06 19.55 27.06C20.3527 27.06 21.0293 27.2653 21.58 27.676C22.14 28.0867 22.5693 28.67 22.868 29.426C23.1667 30.1727 23.316 31.0687 23.316 32.114C23.316 33.1407 23.1667 34.032 22.868 34.788C22.5693 35.544 22.14 36.132 21.58 36.552C21.0293 36.9627 20.3527 37.168 19.55 37.168ZM19.55 35.908C20.2873 35.908 20.8427 35.5767 21.216 34.914C21.5893 34.242 21.776 33.3087 21.776 32.114C21.776 30.9007 21.5893 29.9673 21.216 29.314C20.8427 28.6513 20.2873 28.32 19.55 28.32C18.822 28.32 18.2713 28.6513 17.898 29.314C17.5247 29.9673 17.338 30.9007 17.338 32.114C17.338 33.3087 17.5247 34.242 17.898 34.914C18.2713 35.5767 18.822 35.908 19.55 35.908ZM28.5435 37V30.966L28.6135 28.978L27.0315 30.266L25.2815 31.666V29.916L28.9495 27.228H30.0275V37H28.5435ZM25.2815 37V35.74H32.1975V37H25.2815ZM37.7609 37.168C36.9676 37.168 36.2909 36.9627 35.7309 36.552C35.1709 36.132 34.7416 35.544 34.4429 34.788C34.1443 34.0227 33.9949 33.1313 33.9949 32.114C33.9949 31.078 34.1443 30.182 34.4429 29.426C34.7416 28.67 35.1709 28.0867 35.7309 27.676C36.2909 27.2653 36.9676 27.06 37.7609 27.06C38.5636 27.06 39.2403 27.2653 39.7909 27.676C40.3509 28.0867 40.7803 28.67 41.0789 29.426C41.3776 30.1727 41.5269 31.0687 41.5269 32.114C41.5269 33.1407 41.3776 34.032 41.0789 34.788C40.7803 35.544 40.3509 36.132 39.7909 36.552C39.2403 36.9627 38.5636 37.168 37.7609 37.168ZM37.7609 35.908C38.4983 35.908 39.0536 35.5767 39.4269 34.914C39.8003 34.242 39.9869 33.3087 39.9869 32.114C39.9869 30.9007 39.8003 29.9673 39.4269 29.314C39.0536 28.6513 38.4983 28.32 37.7609 28.32C37.0329 28.32 36.4823 28.6513 36.1089 29.314C35.7356 29.9673 35.5489 30.9007 35.5489 32.114C35.5489 33.3087 35.7356 34.242 36.1089 34.914C36.4823 35.5767 37.0329 35.908 37.7609 35.908ZM46.7544 37V30.966L46.8244 28.978L45.2424 30.266L43.4924 31.666V29.916L47.1604 27.228H48.2384V37H46.7544ZM43.4924 37V35.74H50.4084V37H43.4924ZM19.438 53V46.966L19.508 44.978L17.926 46.266L16.176 47.666V45.916L19.844 43.228H20.922V53H19.438ZM16.176 53V51.74H23.092V53H16.176ZM28.6555 53.168C27.8621 53.168 27.1855 52.9627 26.6255 52.552C26.0655 52.132 25.6361 51.544 25.3375 50.788C25.0388 50.0227 24.8895 49.1313 24.8895 48.114C24.8895 47.078 25.0388 46.182 25.3375 45.426C25.6361 44.67 26.0655 44.0867 26.6255 43.676C27.1855 43.2653 27.8621 43.06 28.6555 43.06C29.4581 43.06 30.1348 43.2653 30.6855 43.676C31.2455 44.0867 31.6748 44.67 31.9735 45.426C32.2721 46.1727 32.4215 47.0687 32.4215 48.114C32.4215 49.1407 32.2721 50.032 31.9735 50.788C31.6748 51.544 31.2455 52.132 30.6855 52.552C30.1348 52.9627 29.4581 53.168 28.6555 53.168ZM28.6555 51.908C29.3928 51.908 29.9481 51.5767 30.3215 50.914C30.6948 50.242 30.8815 49.3087 30.8815 48.114C30.8815 46.9007 30.6948 45.9673 30.3215 45.314C29.9481 44.6513 29.3928 44.32 28.6555 44.32C27.9275 44.32 27.3768 44.6513 27.0035 45.314C26.6301 45.9673 26.4435 46.9007 26.4435 48.114C26.4435 49.3087 26.6301 50.242 27.0035 50.914C27.3768 51.5767 27.9275 51.908 28.6555 51.908ZM37.7609 53.168C36.9676 53.168 36.2909 52.9627 35.7309 52.552C35.1709 52.132 34.7416 51.544 34.4429 50.788C34.1443 50.0227 33.9949 49.1313 33.9949 48.114C33.9949 47.078 34.1443 46.182 34.4429 45.426C34.7416 44.67 35.1709 44.0867 35.7309 43.676C36.2909 43.2653 36.9676 43.06 37.7609 43.06C38.5636 43.06 39.2403 43.2653 39.7909 43.676C40.3509 44.0867 40.7803 44.67 41.0789 45.426C41.3776 46.1727 41.5269 47.0687 41.5269 48.114C41.5269 49.1407 41.3776 50.032 41.0789 50.788C40.7803 51.544 40.3509 52.132 39.7909 52.552C39.2403 52.9627 38.5636 53.168 37.7609 53.168ZM37.7609 51.908C38.4983 51.908 39.0536 51.5767 39.4269 50.914C39.8003 50.242 39.9869 49.3087 39.9869 48.114C39.9869 46.9007 39.8003 45.9673 39.4269 45.314C39.0536 44.6513 38.4983 44.32 37.7609 44.32C37.0329 44.32 36.4823 44.6513 36.1089 45.314C35.7356 45.9673 35.5489 46.9007 35.5489 48.114C35.5489 49.3087 35.7356 50.242 36.1089 50.914C36.4823 51.5767 37.0329 51.908 37.7609 51.908ZM46.7544 53V46.966L46.8244 44.978L45.2424 46.266L43.4924 47.666V45.916L47.1604 43.228H48.2384V53H46.7544ZM43.4924 53V51.74H50.4084V53H43.4924Z"/>
</svg>
