<svg width="116" height="412" viewBox="0 0 116 412" fill="none" xmlns="http://www.w3.org/2000/svg">
<line x1="0.5" y1="357" x2="0.5" y2="87" stroke="#D9D9De"/>
<line x1="115.5" y1="357" x2="115.5" y2="87" stroke="white"/>
<line y1="356.5" x2="116" y2="356.5" stroke="white"/>
<path d="M116 87C116 80.3026 114.5 73.6707 111.585 67.4831C108.67 61.2955 104.398 55.6733 99.0122 50.9376C93.6264 46.2018 87.2325 42.4451 80.1956 39.8821C73.1588 37.3192 65.6167 36 58 36C50.3833 36 42.8412 37.3192 35.8044 39.8821C28.7675 42.4451 22.3736 46.2018 16.9878 50.9376C11.602 55.6733 7.32976 61.2955 4.41499 67.4831C1.50021 73.6708 -6.6587e-07 80.3026 0 87L58 87H116Z" fill="#D9D9D9"/>
<path d="M57.5 0L76.1195 40.5H38.8805L57.5 0Z" fill="#999"/>
<rect x="13" y="109" width="92" height="180" fill="#333333"/>
<circle cx="28.5" cy="248.5" r="2.5" fill="#777777"/>
<circle cx="87.5" cy="248.5" r="2.5" fill="#777777"/>
<rect x="29" y="248" width="58" height="1" fill="#AAAAAA"/>
<rect x="31" y="246" width="54" height="5" fill="#FF7700"/>
<rect x="19" y="289" width="78" height="11" fill="#333333"/>
<circle cx="21.5" cy="123.5" r="2.5" fill="#777777"/>
<circle cx="60.5" cy="292.5" r="2.5" fill="#777777"/>
<circle cx="87.5" cy="272.5" r="2.5" fill="#777777"/>
<circle cx="87.5" cy="292.5" r="2.5" fill="#777777"/>
<circle cx="94.5" cy="253.5" r="2.5" fill="#777777"/>
<circle cx="21.5" cy="253.5" r="2.5" fill="#777777"/>
<circle cx="87.5" cy="183.5" r="2.5" fill="#777777"/>
<circle cx="28.5" cy="183.5" r="2.5" fill="#777777"/>
<circle cx="87.5" cy="128.5" r="2.5" fill="#777777"/>
<circle cx="28.5" cy="128.5" r="2.5" fill="#777777"/>
<circle cx="94.5" cy="188.5" r="2.5" fill="#777777"/>
<circle cx="94.5" cy="123.5" r="2.5" fill="#777777"/>
<circle cx="21.5" cy="188.5" r="2.5" fill="#777777"/>
<rect x="87" y="273" width="1" height="19" fill="#AAAAA"/>
<rect x="86.2902" y="272" width="1" height="31.8602" transform="rotate(52.5408 86.2902 272)" fill="#AAAAAA"/>
<rect x="29" y="128" width="58" height="1" fill="#AAAAAA"/>
<rect x="29" y="183" width="58" height="1" fill="#AAAAAA"/>
<rect x="21" y="124" width="1" height="64" fill="#AAAAAA"/>
<rect x="94" y="189" width="1" height="64" fill="#AAAAAA"/>
<rect x="21" y="189" width="1" height="65" fill="#AAAAAA"/>
<rect x="94" y="124" width="1" height="64" fill="#AAAAAA"/>
<rect x="26" y="300" width="2" height="39" fill="#D9D9D9"/>
<rect x="57" y="300" width="2" height="39" fill="#D9D9D9"/>
<rect x="87" y="300" width="2" height="39" fill="#D9D9D9"/>
<rect x="70" y="300" width="2" height="39" fill="#D9D9D9"/>
<rect x="44" y="300" width="3" height="39" fill="#D9D9D9"/>
<rect x="18" y="193" width="7" height="56" fill="#FF7700"/>
<rect x="92" y="128" width="5" height="56" fill="#FF7700"/>
<rect x="92" y="193" width="5" height="56" fill="#FF7700"/>
<rect x="19" y="128" width="5" height="56" fill="#FF7700"/>
<rect x="33" y="126" width="50" height="5" fill="#FF7700"/>
<rect x="33" y="181" width="50" height="5" fill="#FF7700"/>
<rect x="85" y="277" width="5" height="13" fill="#FF7700"/>
<rect x="83.7921" y="273.83" width="5" height="24.7636" transform="rotate(52.4099 83.7921 271.83)" fill="#FF7700"/>
<rect x="1" y="337" width="114" height="20" fill="#FFD000"/>
<path d="M116 337C116 317.109 109.889 298.032 99.0122 283.967C88.1351 269.902 73.3826 262 58 262C42.6174 262 27.8649 269.902 16.9878 283.967C6.1107 298.032 2.3227e-06 317.109 0 337L58 337H116Z" fill="url(#paint0_linear_7_4)"/>
<defs>
<linearGradient id="paint0_linear_7_4" x1="58" y1="262" x2="58" y2="412" gradientUnits="userSpaceOnUse">
<stop stop-color="#737373" stop-opacity="0"/>
<stop offset="1" stop-color="#FFF000"/>
</linearGradient>
</defs>
</svg>
