<svg viewBox="0 0 580.838 600">
    <path d="M580.213,162.271V52.467c0-2.243-1.134-4.63-3.013-5.856c-1.096-0.715-2.558-1.464-3.825-1.708  c-0.581-0.112-7.184-1.079-11.684-1.735c-0.148-0.032-0.29-0.08-0.443-0.102L457.95,28.162c-2.438-0.195-4.589-0.586-7.836,0.585  l-4.925,1.849c-0.518-2.497-1.883-4.398-4.519-4.777l-90.778-13.178c-2.244-0.195-3.709,0-6.052,0.586l-4.708,1.515  c-0.673-2.377-2.894-4.174-5.442-4.541L262.049,0.067C261.734,0.023,261.42,0,261.103,0c-0.566,0-1.132,0.073-1.683,0.217  L206.795,13.91c-2.741,0.718-4.552,3.08-4.882,5.84c-3.415-0.533-5.729-0.885-6.345-0.959c-3.661-0.439-6.916,0.002-7.467,0.146  l-66.745,17.361c-2.819,0.739-4.778,3.223-4.924,6.087l-6.634-1.15c-0.378-0.065-4.863-0.558-8.507,0.43L23.847,61.948l-0.104-0.034  c-0.103-0.02-1.176,0.293-2.74,0.778l-1.375,0.36c0.01-0.006-0.018,0.036-0.046,0.085c-5.15,1.627-13.275,4.31-13.545,4.421  c-1.632,0.677-2.42,1.002-3.62,1.99C0.885,70.811,0,73.571,0,75.554V194c0,2.12,1.019,4.037,2.626,5.265  c-0.015,0.011-0.03,0.019-0.046,0.03C0.953,200.551,0,202.492,0,204.549v120.999c0,2.164,1.05,4.142,2.734,5.369  C1.018,332.166,0,334.161,0,336.286v116.307c0,2.688,1.62,5.109,4.104,6.139l97.223,40.199c0.814,0.336,1.678,0.503,2.536,0.503  c1.296,0,2.583-0.38,3.691-1.12c0.113-0.074,0.217-0.164,0.326-0.248c0.396,2.198,1.874,4.088,3.988,4.962l108.937,45.013  c0.813,0.338,1.678,0.503,2.536,0.503c1.296,0,2.583-0.378,3.689-1.119c0.114-0.077,0.217-0.167,0.325-0.249  c0.414,2.292,2.004,4.239,4.247,5.062l126.504,46.223c0.741,0.271,1.513,0.402,2.279,0.402c1.343,0,2.674-0.407,3.807-1.196  c1.45-1.016,2.411-2.562,2.718-4.276c0.394,0.298,0.812,0.57,1.271,0.778c0.881,0.4,1.814,0.595,2.748,0.595  c1.576,0,3.134-0.561,4.367-1.638l76.138-66.483c1.445-1.261,2.272-3.084,2.272-5.001v-4.062c0.397,0.291,0.821,0.554,1.287,0.753  c0.845,0.361,1.73,0.535,2.613,0.535c1.675,0,3.324-0.635,4.585-1.835l58.567-55.895c1.312-1.254,2.057-2.99,2.057-4.805v-4.062  c0.4,0.291,0.823,0.556,1.292,0.756c0.84,0.358,1.729,0.532,2.608,0.532c1.677,0,3.331-0.636,4.592-1.842l46.854-44.824  c1.311-1.252,2.052-2.983,2.052-4.798V296.547c0-2.532-1.438-4.843-3.712-5.96c-0.179-0.087-0.36-0.159-0.545-0.229l1.67-1.29  c1.633-1.257,2.587-3.199,2.587-5.258V174.102c0-2.396-1.29-4.607-3.381-5.784c-0.076-0.044-0.158-0.074-0.236-0.115l0.412-0.249  C578.995,166.751,580.213,164.596,580.213,162.271z"/>
<g>
	<g>
		<path fill="#E61F19" d="M194.973,25.362c-1.827-0.292-4.787-0.147-6.577,0.321l-55.299,14.483    c-1.79,0.469-1.764,1.113,0.061,1.431l68.662,11.978c1.823,0.318,4.755,0.114,6.519-0.454l49.948-16.09    c1.764-0.567,1.708-1.271-0.118-1.563L194.973,25.362z"/>
	</g>
	<g>
		<path fill="#E61F19" d="M263.895,6.591c-1.832-0.26-4.795-0.087-6.585,0.383l-41.381,10.868c-1.79,0.47-1.756,1.075,0.075,1.344    l63.549,9.338c1.831,0.269,4.772,0.039,6.541-0.511l37.137-11.569c1.767-0.55,1.713-1.213-0.119-1.472L263.895,6.591z"/>
	</g>
	<g>
		<path fill="#00913A" d="M350.736,19.521c-1.831-0.263-4.771-0.014-6.532,0.553l-35.803,11.532    c-1.761,0.567-1.707,1.271,0.12,1.563l80.562,12.884c1.827,0.292,4.74,0.001,6.476-0.646l34.403-12.867    c1.732-0.648,1.651-1.394-0.18-1.657L350.736,19.521z"/>
	</g>
	<g>
		<path fill="#00913A" d="M287.049,40.086c-1.827-0.292-4.765-0.067-6.525,0.5l-50.602,16.3c-1.764,0.567-1.711,1.292,0.11,1.61    l85.694,14.948c1.823,0.318,4.732,0.048,6.466-0.601l47.675-17.831c1.733-0.648,1.656-1.418-0.171-1.71L287.049,40.086z"/>
	</g>
	<g>
		<path fill="#E61F19" d="M457.468,34.86c-1.831-0.263-4.748,0.052-6.481,0.7l-35.042,13.105c-1.731,0.648-1.656,1.418,0.171,1.71    L516.944,66.5c1.827,0.292,4.711-0.072,6.408-0.809l33.866-14.712c1.695-0.737,1.587-1.556-0.244-1.819L457.468,34.86z"/>
	</g>
	<g>
		<path fill="#E61F19" d="M396.728,57.626c-1.827-0.292-4.74-0.001-6.474,0.647l-48.215,18.033    c-1.731,0.648-1.658,1.439,0.163,1.757l105.611,18.424c1.823,0.318,4.703-0.025,6.4-0.762l45.551-19.788    c1.697-0.737,1.591-1.58-0.236-1.872L396.728,57.626z"/>
	</g>
	<g>
		<path fill="#E61F19" d="M323.287,85.138c-1.821-0.318-4.73-0.048-6.466,0.601l-66.271,24.785c-1.733,0.648-1.665,1.466,0.15,1.817    l111.098,21.457c1.815,0.351,4.69,0.035,6.39-0.702l62.816-27.287c1.695-0.737,1.595-1.601-0.229-1.918L323.287,85.138z"/>
	</g>
	<g>
		<path fill="#00913A" d="M209.141,65.227c-1.823-0.318-4.755-0.114-6.519,0.454L133.29,88.014c-1.763,0.567-1.716,1.319,0.102,1.67    l91.513,17.674c1.817,0.351,4.723,0.108,6.455-0.541l65.618-24.541c1.733-0.648,1.66-1.439-0.163-1.757L209.141,65.227z"/>
	</g>
	<g>
		<path fill="#E61F19" d="M109.381,47.823c-1.822-0.318-4.778-0.194-6.568,0.274L27.658,67.781c-1.79,0.469-1.77,1.14,0.048,1.491    l78.274,15.118c1.816,0.351,4.744,0.174,6.506-0.394l68.553-22.081c1.762-0.567,1.711-1.292-0.111-1.61L109.381,47.823z"/>
	</g>
</g>
<g>
	<g>
		<path fill="#036EB7" d="M9.943,76.195c-1.815-0.353-3.303,0.873-3.303,2.723v111.717c0,1.85,1.465,3.747,3.255,4.214    l90.711,23.673c1.791,0.467,3.255-0.665,3.255-2.515v-118.2c0-1.85-1.485-3.653-3.303-4.006L9.943,76.195z"/>
	</g>
	<g>
		<path fill="#036EB7" d="M9.835,337.34c-1.757-0.58-3.194,0.459-3.194,2.311v109.577c0,1.853,1.398,3.942,3.108,4.649    l91.003,37.629c1.71,0.707,3.108-0.229,3.108-2.079V371.746c0-1.853-1.438-3.839-3.194-4.419L9.835,337.34z"/>
	</g>
	<g>
		<path fill="#FFE100" d="M117.707,97.008c-1.815-0.353-3.304,0.873-3.304,2.723v118.86c0,1.85,1.466,3.747,3.256,4.213    l102.426,26.713c1.79,0.467,3.255-0.665,3.255-2.515v-126.12c0-1.85-1.486-3.653-3.305-4.005L117.707,97.008z"/>
	</g>
	<g>
		<path fill="#FFE100" d="M117.66,233.354c-1.791-0.467-3.256,0.665-3.256,2.515V357.55c0,1.853,1.438,3.839,3.195,4.418    l102.546,33.833c1.757,0.579,3.195-0.46,3.195-2.311V264.28c0-1.85-1.465-3.747-3.255-4.213L117.66,233.354z"/>
	</g>
	<g>
		<path fill="#036EB7" d="M9.896,205.398c-1.791-0.467-3.255,0.665-3.255,2.515v114.271c0,1.852,1.438,3.838,3.194,4.418    l90.833,29.988c1.757,0.58,3.194-0.459,3.194-2.31V233.285c0-1.85-1.465-3.747-3.255-4.214L9.896,205.398z"/>
	</g>
	<g>
		<path fill="#FFE100" d="M117.6,372.707c-1.758-0.579-3.195,0.46-3.195,2.311v118.508c0,1.851,1.399,3.94,3.109,4.647    l102.717,42.443c1.71,0.707,3.109-0.229,3.109-2.079v-127.58c0-1.852-1.438-3.839-3.195-4.418L117.6,372.707z"/>
	</g>
	<g>
		<path fill="#036EB7" d="M237.138,264.349c-1.791-0.467-3.256,0.666-3.256,2.516V396.76c0,1.853,1.438,3.838,3.193,4.418    l120.114,39.604c1.758,0.58,3.195-0.46,3.195-2.312V299.834c0-1.85-1.465-3.746-3.256-4.213L237.138,264.349z"/>
	</g>
	<g>
		<path fill="#036EB7" d="M237.185,120.083c-1.816-0.352-3.303,0.874-3.303,2.724v126.78c0,1.85,1.465,3.746,3.256,4.213    l119.993,31.271c1.791,0.467,3.256-0.666,3.256-2.516V147.352c0-1.85-1.486-3.653-3.303-4.005L237.185,120.083z"/>
	</g>
	<g>
		<path fill="#036EB7" d="M237.076,411.917c-1.757-0.58-3.193,0.46-3.193,2.311v128.401c0,1.853,1.422,3.884,3.158,4.521    l120.186,43.917c1.738,0.635,3.16-0.359,3.16-2.21V455.934c0-1.851-1.438-3.838-3.195-4.418L237.076,411.917z"/>
	</g>
</g>
<g>
	<g>
		<path fill="#FFFFFF" d="M573.571,177.466c0-1.85-1.296-2.581-2.879-1.624l-41.096,24.839c-1.583,0.957-2.879,3.254-2.879,5.104    v110.809c0,1.852,1.197,2.439,2.664,1.312l41.523-32.038c1.465-1.13,2.664-3.569,2.664-5.419L573.571,177.466L573.571,177.466z"/>
	</g>
	<g>
		<path fill="#FFFFFF" d="M573.571,58.219c0-1.85-1.386-2.755-3.08-2.01l-40.691,17.896c-1.694,0.745-3.08,2.869-3.08,4.719v108.401    c0,1.85,1.296,2.581,2.879,1.624l41.096-24.839c1.583-0.957,2.879-3.254,2.879-5.104L573.571,58.219L573.571,58.219z"/>
	</g>
	<g>
		<path fill="#FF7800" d="M516.176,211.732c0-1.85-1.297-2.583-2.881-1.627l-52.808,31.839c-1.584,0.956-2.881,3.251-2.881,5.102    v122.211c0,1.853,1.2,2.44,2.666,1.312l53.235-40.968c1.466-1.129,2.666-3.565,2.666-5.416L516.176,211.732L516.176,211.732z"/>
	</g>
	<g>
		<path fill="#FF7800" d="M516.176,83.151c0-1.85-1.389-2.756-3.081-2.013l-52.405,22.991c-1.694,0.743-3.081,2.866-3.081,4.716    v119.639c0,1.85,1.297,2.583,2.881,1.627l52.808-31.837c1.584-0.956,2.881-3.251,2.881-5.102L516.176,83.151L516.176,83.151z"/>
	</g>
	<g>
		<path fill="#FFFFFF" d="M573.571,299.912c0-1.85-1.199-2.439-2.664-1.309l-41.523,32.038c-1.467,1.129-2.664,3.567-2.664,5.418    v107.494c0,1.853,1.094,2.317,2.432,1.038l41.99-40.17c1.338-1.279,2.432-3.84,2.432-5.69L573.571,299.912L573.571,299.912z"/>
	</g>
	<g>
		<path fill="#FFFFFF" d="M447.066,396.312c0-1.853-1.201-2.442-2.669-1.315l-70.8,54.364c-1.468,1.127-2.669,3.562-2.669,5.413    v129.979c0,1.853,1.141,2.368,2.534,1.151l71.067-62.06c1.396-1.217,2.534-3.727,2.534-5.576L447.066,396.312L447.066,396.312z"/>
	</g>
	<g>
		<path fill="#FF7800" d="M516.176,343.65c0-1.853-1.2-2.44-2.666-1.312l-53.235,40.968c-1.466,1.128-2.666,3.565-2.666,5.416    V508.86c0,1.851,1.097,2.317,2.435,1.041l53.699-51.247c1.338-1.278,2.436-3.837,2.436-5.688L516.176,343.65L516.176,343.65z"/>
	</g>
	<g>
		<path fill="#FFFFFF" d="M447.066,113.172c0-1.85-1.387-2.757-3.082-2.015l-69.974,30.628c-1.695,0.742-3.082,2.863-3.082,4.713    v133.735c0,1.85,1.297,2.584,2.883,1.63l70.372-42.333c1.586-0.954,2.883-3.249,2.883-5.099V113.172z"/>
	</g>
	<g>
		<path fill="#FFFFFF" d="M447.066,252.992c0-1.85-1.297-2.584-2.883-1.63l-70.372,42.333c-1.586,0.954-2.883,3.249-2.883,5.099    v136.514c0,1.853,1.201,2.442,2.669,1.315l70.8-54.362c1.468-1.127,2.669-3.562,2.669-5.413V252.992z"/>
	</g>
</g>
</svg>